# xmcd CD database file
#
# Track frame offsets:
#	182
#	15527
#	30260
#	54530
#	74135
#	93187
#	114160
#	131267
#	147890
#	164285
#	179992
#	201412
#	216642
#
# Disc length: 3053 seconds
#
# Revision: 0
# Processed by: cddbd v1.5.1PL0 Copyright (c) Steve Scherf et al.
# Submitted via: CDex 1.51
#
DISCID=bf0beb0d
DTITLE=Traction Ailleurs - Faut qu'ça roule
DYEAR=1991
DGENRE=Jazz
TTITLE0=Faut qu'ça roule
TTITLE1=La toupie arrêtée
TTITLE2=Stabilise
TTITLE3=Pas de haine dans ma peine
TTITLE4=La fille de l'océan
TTITLE5=Tu m'a fait mal
TTITLE6=J'étais comme hiver
TTITLE7=autour toi
TTITLE8=besoin d'orient
TTITLE9=j'ai cassée la chaise
TTITLE10=J'aurais voulu jouer du Yukulélé
TTITLE11=Chanter yéyé
TTITLE12=La valse du parapluie
EXTD=YEAR: 1991
EXTT0=
EXTT1=
EXTT2=
EXTT3=
EXTT4=
EXTT5=
EXTT6=
EXTT7=
EXTT8=
EXTT9=
EXTT10=
EXTT11=
EXTT12=
PLAYORDER=
